<?xml version="1.0" standalone="no"?>
<!DOCTYPE svg PUBLIC "-//W3C//DTD SVG 20010904//EN"
 "http://www.w3.org/TR/2001/REC-SVG-20010904/DTD/svg10.dtd">
<svg version="1.0" xmlns="http://www.w3.org/2000/svg"
 width="860.000000pt" height="591.000000pt" viewBox="0 0 860.000000 591.000000"
 preserveAspectRatio="xMidYMid meet">

<g transform="translate(0.000000,591.000000) scale(0.100000,-0.100000)"
fill="#000000" stroke="none">
<path d="M3398 5490 c-215 -37 -365 -141 -446 -310 -74 -154 -72 -123 -72
-1189 0 -1016 0 -1021 51 -1156 80 -214 252 -334 525 -365 68 -7 401 -10 1059
-9 1019 2 1002 3 1070 -45 16 -11 169 -161 340 -333 209 -210 325 -319 355
-334 117 -60 265 -6 315 115 15 34 17 81 16 328 -1 229 1 288 11 288 7 0 60
23 117 51 182 89 293 226 338 416 17 73 18 145 18 1038 0 897 -1 965 -18 1040
-53 229 -191 377 -417 447 l-75 23 -1570 1 c-863 1 -1591 -2 -1617 -6z m1752
-570 c193 -39 333 -137 404 -282 91 -185 84 -399 -18 -554 -19 -28 -67 -80
-108 -115 -178 -155 -255 -253 -289 -366 -11 -39 -15 -43 -55 -49 -63 -9 -341
-1 -353 11 -16 16 6 168 34 238 34 84 69 124 184 211 165 125 221 206 229 331
5 89 -10 146 -53 194 -39 43 -88 61 -164 61 -73 0 -110 -19 -166 -84 -27 -32
-66 -66 -87 -77 -62 -32 -166 -51 -242 -46 -60 4 -73 8 -93 31 -62 73 3 275
120 369 75 62 215 119 337 140 70 12 232 5 320 -13z m-89 -1540 c61 -17 74
-40 77 -144 7 -167 -23 -196 -195 -196 -131 1 -182 12 -210 45 -21 23 -23 36
-23 128 0 118 11 147 60 164 43 15 242 17 291 3z"/>
<path d="M1967 4164 c-219 -47 -380 -204 -434 -421 -15 -61 -17 -168 -17
-1083 0 -929 1 -1020 17 -1080 42 -158 104 -236 245 -308 109 -57 161 -104
193 -177 22 -48 23 -61 21 -270 -4 -285 10 -330 119 -389 64 -35 135 -39 194
-11 26 12 154 133 360 340 288 290 327 325 390 356 l70 34 1060 5 c991 5 1064
7 1115 24 145 48 233 123 321 272 135 231 115 296 -161 539 -148 131 -146 132
-152 -97 -3 -160 -5 -177 -28 -222 -18 -36 -36 -56 -65 -70 -39 -21 -55 -21
-1165 -26 l-1125 -5 -45 -23 c-27 -15 -128 -106 -257 -235 l-213 -212 0 237 0
236 -172 4 c-160 3 -176 5 -214 27 -24 13 -52 41 -65 65 l-24 41 -3 919 c-2
587 1 938 7 973 6 30 20 68 32 85 39 54 73 62 299 68 l205 5 0 205 0 205 -220
2 c-162 1 -238 -2 -288 -13z"/>
</g>
</svg>
