<?xml version="1.0" standalone="no"?>
<!DOCTYPE svg PUBLIC "-//W3C//DTD SVG 20010904//EN"
 "http://www.w3.org/TR/2001/REC-SVG-20010904/DTD/svg10.dtd">
<svg version="1.0" xmlns="http://www.w3.org/2000/svg"
 width="256.000000pt" height="256.000000pt" viewBox="0 0 256.000000 256.000000"
 preserveAspectRatio="xMidYMid meet">

<g transform="translate(0.000000,256.000000) scale(0.100000,-0.100000)"
fill="#000000" stroke="none">
<path d="M1150 2554 c-14 -2 -56 -9 -95 -15 -105 -17 -248 -65 -355 -120 -487
-249 -765 -783 -686 -1318 20 -136 53 -244 112 -371 l44 -95 -84 -315 c-47
-173 -84 -315 -83 -317 2 -1 144 36 317 83 l315 84 95 -44 c199 -92 333 -121
555 -121 174 1 260 14 408 64 191 65 337 157 490 309 179 178 298 397 353 654
25 116 25 380 0 496 -110 509 -483 889 -986 1003 -81 19 -340 34 -400 23z
m300 -159 c168 -25 309 -79 455 -175 94 -62 244 -209 305 -299 265 -394 265
-888 0 -1282 -56 -82 -207 -233 -289 -289 -339 -228 -755 -262 -1121 -91 -36
16 -81 40 -101 52 l-37 22 -216 -58 c-119 -32 -219 -55 -223 -52 -3 4 20 104
52 223 l58 216 -22 37 c-110 182 -168 411 -158 626 13 292 125 546 331 751
259 259 607 374 966 319z"/>
<path d="M1195 1906 c-154 -38 -271 -168 -283 -314 l-5 -53 74 3 74 3 5 35
c15 89 85 160 178 181 133 31 262 -77 262 -217 0 -82 -22 -118 -170 -284
l-130 -145 2 -85 3 -85 75 0 75 0 3 63 3 64 101 111 c121 135 151 178 173 245
25 77 18 200 -17 274 -48 104 -149 182 -266 207 -65 13 -92 13 -157 -3z"/>
<path d="M1202 718 l3 -73 75 0 75 0 3 73 3 72 -81 0 -81 0 3 -72z"/>
</g>
</svg>
